<svg xmlns="http://www.w3.org/2000/svg" viewBox="0 0 768 768">
<path fill="#145AB2" fill-rule="evenodd" d="M256.0,760.0L256.0,752.0L232.0,752.0L208.0,752.0L208.0,744.0L208.0,736.0L192.0,736.0L176.0,736.0L176.0,728.0L176.0,720.0L168.0,720.0L160.0,720.0L160.0,712.0L160.0,704.0L144.0,704.0L128.0,704.0L128.0,696.0L128.0,688.0L120.0,688.0L112.0,688.0L112.0,680.0L112.0,672.0L104.0,672.0L96.0,672.0L96.0,664.0L96.0,656.0L88.0,656.0L80.0,656.0L80.0,648.0L80.0,640.0L72.0,640.0L64.0,640.0L64.0,624.0L64.0,608.0L56.0,608.0L48.0,608.0L48.0,600.0L48.0,592.0L40.0,592.0L32.0,592.0L32.0,576.0L32.0,560.0L24.0,560.0L16.0,560.0L16.0,536.0L16.0,512.0L8.0,512.0L0.0,512.0L0.0,384.0L0.0,256.0L8.0,256.0L16.0,256.0L16.0,232.0L16.0,208.0L24.0,208.0L32.0,208.0L32.0,192.0L32.0,176.0L40.0,176.0L48.0,176.0L48.0,168.0L48.0,160.0L56.0,160.0L64.0,160.0L64.0,144.0L64.0,128.0L72.0,128.0L80.0,128.0L80.0,120.0L80.0,112.0L88.0,112.0L96.0,112.0L96.0,104.0L96.0,96.0L104.0,96.0L112.0,96.0L112.0,88.0L112.0,80.0L120.0,80.0L128.0,80.0L128.0,72.0L128.0,64.0L144.0,64.0L160.0,64.0L160.0,56.0L160.0,48.0L168.0,48.0L176.0,48.0L176.0,40.0L176.0,32.0L192.0,32.0L208.0,32.0L208.0,24.0L208.0,16.0L232.0,16.0L256.0,16.0L256.0,8.0L256.0,0.0L384.0,0.0L512.0,0.0L512.0,8.0L512.0,16.0L536.0,16.0L560.0,16.0L560.0,24.0L560.0,32.0L576.0,32.0L592.0,32.0L592.0,40.0L592.0,48.0L600.0,48.0L608.0,48.0L608.0,56.0L608.0,64.0L624.0,64.0L640.0,64.0L640.0,72.0L640.0,80.0L648.0,80.0L656.0,80.0L656.0,88.0L656.0,96.0L664.0,96.0L672.0,96.0L672.0,104.0L672.0,112.0L680.0,112.0L688.0,112.0L688.0,120.0L688.0,128.0L696.0,128.0L704.0,128.0L704.0,144.0L704.0,160.0L712.0,160.0L720.0,160.0L720.0,168.0L720.0,176.0L728.0,176.0L736.0,176.0L736.0,192.0L736.0,208.0L744.0,208.0L752.0,208.0L752.0,232.0L752.0,256.0L760.0,256.0L768.0,256.0L768.0,384.0L768.0,512.0L760.0,512.0L752.0,512.0L752.0,536.0L752.0,560.0L744.0,560.0L736.0,560.0L736.0,576.0L736.0,592.0L728.0,592.0L720.0,592.0L720.0,600.0L720.0,608.0L712.0,608.0L704.0,608.0L704.0,624.0L704.0,640.0L696.0,640.0L688.0,640.0L688.0,648.0L688.0,656.0L680.0,656.0L672.0,656.0L672.0,664.0L672.0,672.0L664.0,672.0L656.0,672.0L656.0,680.0L656.0,688.0L648.0,688.0L640.0,688.0L640.0,696.0L640.0,704.0L624.0,704.0L608.0,704.0L608.0,712.0L608.0,720.0L600.0,720.0L592.0,720.0L592.0,728.0L592.0,736.0L576.0,736.0L560.0,736.0L560.0,744.0L560.0,752.0L536.0,752.0L512.0,752.0L512.0,760.0L512.0,768.0L384.0,768.0L256.0,768.0L256.0,760.0ZM560.0,552.0L560.0,544.0L552.0,544.0L544.0,544.0L544.0,536.0L544.0,528.0L536.0,528.0L528.0,528.0L528.0,536.0L528.0,544.0L536.0,544.0L544.0,544.0L544.0,552.0L544.0,560.0L552.0,560.0L560.0,560.0L560.0,552.0ZM240.0,536.0L240.0,528.0L248.0,528.0L256.0,528.0L256.0,512.0L256.0,496.0L248.0,496.0L240.0,496.0L240.0,512.0L240.0,528.0L232.0,528.0L224.0,528.0L224.0,536.0L224.0,544.0L232.0,544.0L240.0,544.0L240.0,536.0ZM304.0,536.0L304.0,528.0L296.0,528.0L288.0,528.0L288.0,536.0L288.0,544.0L296.0,544.0L304.0,544.0L304.0,536.0ZM512.0,520.0L512.0,512.0L504.0,512.0L496.0,512.0L496.0,504.0L496.0,496.0L488.0,496.0L480.0,496.0L480.0,512.0L480.0,528.0L496.0,528.0L512.0,528.0L512.0,520.0ZM288.0,504.0L288.0,496.0L280.0,496.0L272.0,496.0L272.0,504.0L272.0,512.0L280.0,512.0L288.0,512.0L288.0,504.0ZM592.0,472.0L592.0,464.0L584.0,464.0L576.0,464.0L576.0,456.0L576.0,448.0L568.0,448.0L560.0,448.0L560.0,432.0L560.0,416.0L552.0,416.0L544.0,416.0L544.0,400.0L544.0,384.0L536.0,384.0L528.0,384.0L528.0,368.0L528.0,352.0L520.0,352.0L512.0,352.0L512.0,344.0L512.0,336.0L504.0,336.0L496.0,336.0L496.0,320.0L496.0,304.0L488.0,304.0L480.0,304.0L480.0,296.0L480.0,288.0L472.0,288.0L464.0,288.0L464.0,272.0L464.0,256.0L456.0,256.0L448.0,256.0L448.0,248.0L448.0,240.0L440.0,240.0L432.0,240.0L432.0,224.0L432.0,208.0L424.0,208.0L416.0,208.0L416.0,192.0L416.0,176.0L408.0,176.0L400.0,176.0L400.0,168.0L400.0,160.0L384.0,160.0L368.0,160.0L368.0,168.0L368.0,176.0L360.0,176.0L352.0,176.0L352.0,192.0L352.0,208.0L344.0,208.0L336.0,208.0L336.0,224.0L336.0,240.0L328.0,240.0L320.0,240.0L320.0,248.0L320.0,256.0L312.0,256.0L304.0,256.0L304.0,272.0L304.0,288.0L296.0,288.0L288.0,288.0L288.0,296.0L288.0,304.0L280.0,304.0L272.0,304.0L272.0,320.0L272.0,336.0L264.0,336.0L256.0,336.0L256.0,344.0L256.0,352.0L248.0,352.0L240.0,352.0L240.0,368.0L240.0,384.0L232.0,384.0L224.0,384.0L224.0,400.0L224.0,416.0L216.0,416.0L208.0,416.0L208.0,432.0L208.0,448.0L200.0,448.0L192.0,448.0L192.0,456.0L192.0,464.0L208.0,464.0L224.0,464.0L224.0,456.0L224.0,448.0L240.0,448.0L256.0,448.0L256.0,440.0L256.0,432.0L288.0,432.0L320.0,432.0L320.0,424.0L320.0,416.0L312.0,416.0L304.0,416.0L304.0,408.0L304.0,400.0L312.0,400.0L320.0,400.0L320.0,392.0L320.0,384.0L328.0,384.0L336.0,384.0L336.0,376.0L336.0,368.0L344.0,368.0L352.0,368.0L352.0,360.0L352.0,352.0L344.0,352.0L336.0,352.0L336.0,328.0L336.0,304.0L344.0,304.0L352.0,304.0L352.0,280.0L352.0,256.0L360.0,256.0L368.0,256.0L368.0,248.0L368.0,240.0L384.0,240.0L400.0,240.0L400.0,248.0L400.0,256.0L408.0,256.0L416.0,256.0L416.0,280.0L416.0,304.0L424.0,304.0L432.0,304.0L432.0,320.0L432.0,336.0L424.0,336.0L416.0,336.0L416.0,352.0L416.0,368.0L424.0,368.0L432.0,368.0L432.0,376.0L432.0,384.0L440.0,384.0L448.0,384.0L448.0,392.0L448.0,400.0L456.0,400.0L464.0,400.0L464.0,408.0L464.0,416.0L456.0,416.0L448.0,416.0L448.0,424.0L448.0,432.0L480.0,432.0L512.0,432.0L512.0,440.0L512.0,448.0L528.0,448.0L544.0,448.0L544.0,456.0L544.0,464.0L560.0,464.0L576.0,464.0L576.0,472.0L576.0,480.0L584.0,480.0L592.0,480.0L592.0,472.0Z"/>
<path fill="#FFFFFF" fill-rule="evenodd" d="M256.0,760.0L256.0,752.0L272.0,752.0L288.0,752.0L288.0,760.0L288.0,768.0L272.0,768.0L256.0,768.0L256.0,760.0ZM480.0,760.0L480.0,752.0L496.0,752.0L512.0,752.0L512.0,760.0L512.0,768.0L496.0,768.0L480.0,768.0L480.0,760.0ZM208.0,744.0L208.0,736.0L192.0,736.0L176.0,736.0L176.0,728.0L176.0,720.0L168.0,720.0L160.0,720.0L160.0,712.0L160.0,704.0L168.0,704.0L176.0,704.0L176.0,712.0L176.0,720.0L192.0,720.0L208.0,720.0L208.0,728.0L208.0,736.0L224.0,736.0L240.0,736.0L240.0,744.0L240.0,752.0L224.0,752.0L208.0,752.0L208.0,744.0ZM528.0,744.0L528.0,736.0L544.0,736.0L560.0,736.0L560.0,728.0L560.0,720.0L576.0,720.0L592.0,720.0L592.0,712.0L592.0,704.0L600.0,704.0L608.0,704.0L608.0,712.0L608.0,720.0L600.0,720.0L592.0,720.0L592.0,728.0L592.0,736.0L576.0,736.0L560.0,736.0L560.0,744.0L560.0,752.0L544.0,752.0L528.0,752.0L528.0,744.0ZM128.0,696.0L128.0,688.0L120.0,688.0L112.0,688.0L112.0,680.0L112.0,672.0L104.0,672.0L96.0,672.0L96.0,664.0L96.0,656.0L88.0,656.0L80.0,656.0L80.0,648.0L80.0,640.0L72.0,640.0L64.0,640.0L64.0,632.0L64.0,624.0L72.0,624.0L80.0,624.0L80.0,632.0L80.0,640.0L88.0,640.0L96.0,640.0L96.0,648.0L96.0,656.0L104.0,656.0L112.0,656.0L112.0,664.0L112.0,672.0L120.0,672.0L128.0,672.0L128.0,680.0L128.0,688.0L136.0,688.0L144.0,688.0L144.0,696.0L144.0,704.0L136.0,704.0L128.0,704.0L128.0,696.0ZM624.0,696.0L624.0,688.0L632.0,688.0L640.0,688.0L640.0,680.0L640.0,672.0L648.0,672.0L656.0,672.0L656.0,664.0L656.0,656.0L664.0,656.0L672.0,656.0L672.0,648.0L672.0,640.0L680.0,640.0L688.0,640.0L688.0,632.0L688.0,624.0L696.0,624.0L704.0,624.0L704.0,632.0L704.0,640.0L696.0,640.0L688.0,640.0L688.0,648.0L688.0,656.0L680.0,656.0L672.0,656.0L672.0,664.0L672.0,672.0L664.0,672.0L656.0,672.0L656.0,680.0L656.0,688.0L648.0,688.0L640.0,688.0L640.0,696.0L640.0,704.0L632.0,704.0L624.0,704.0L624.0,696.0ZM48.0,600.0L48.0,592.0L40.0,592.0L32.0,592.0L32.0,576.0L32.0,560.0L24.0,560.0L16.0,560.0L16.0,544.0L16.0,528.0L24.0,528.0L32.0,528.0L32.0,544.0L32.0,560.0L40.0,560.0L48.0,560.0L48.0,576.0L48.0,592.0L56.0,592.0L64.0,592.0L64.0,600.0L64.0,608.0L56.0,608.0L48.0,608.0L48.0,600.0ZM704.0,600.0L704.0,592.0L712.0,592.0L720.0,592.0L720.0,576.0L720.0,560.0L728.0,560.0L736.0,560.0L736.0,544.0L736.0,528.0L744.0,528.0L752.0,528.0L752.0,544.0L752.0,560.0L744.0,560.0L736.0,560.0L736.0,576.0L736.0,592.0L728.0,592.0L720.0,592.0L720.0,600.0L720.0,608.0L712.0,608.0L704.0,608.0L704.0,600.0ZM368.0,568.0L368.0,560.0L360.0,560.0L352.0,560.0L352.0,528.0L352.0,496.0L360.0,496.0L368.0,496.0L368.0,528.0L368.0,560.0L392.0,560.0L416.0,560.0L416.0,568.0L416.0,576.0L392.0,576.0L368.0,576.0L368.0,568.0ZM480.0,568.0L480.0,560.0L504.0,560.0L528.0,560.0L528.0,552.0L528.0,544.0L512.0,544.0L496.0,544.0L496.0,536.0L496.0,528.0L512.0,528.0L528.0,528.0L528.0,536.0L528.0,544.0L536.0,544.0L544.0,544.0L544.0,560.0L544.0,576.0L512.0,576.0L480.0,576.0L480.0,568.0ZM208.0,552.0L208.0,544.0L224.0,544.0L240.0,544.0L240.0,552.0L240.0,560.0L224.0,560.0L208.0,560.0L208.0,552.0ZM288.0,552.0L288.0,544.0L304.0,544.0L320.0,544.0L320.0,552.0L320.0,560.0L304.0,560.0L288.0,560.0L288.0,552.0ZM224.0,520.0L224.0,512.0L232.0,512.0L240.0,512.0L240.0,520.0L240.0,528.0L232.0,528.0L224.0,528.0L224.0,520.0ZM272.0,520.0L272.0,512.0L264.0,512.0L256.0,512.0L256.0,504.0L256.0,496.0L264.0,496.0L272.0,496.0L272.0,504.0L272.0,512.0L288.0,512.0L304.0,512.0L304.0,520.0L304.0,528.0L288.0,528.0L272.0,528.0L272.0,520.0ZM0.0,496.0L0.0,480.0L8.0,480.0L16.0,480.0L16.0,496.0L16.0,512.0L8.0,512.0L0.0,512.0L0.0,496.0ZM464.0,504.0L464.0,496.0L472.0,496.0L480.0,496.0L480.0,504.0L480.0,512.0L472.0,512.0L464.0,512.0L464.0,504.0ZM752.0,496.0L752.0,480.0L760.0,480.0L768.0,480.0L768.0,496.0L768.0,512.0L760.0,512.0L752.0,512.0L752.0,496.0ZM592.0,488.0L592.0,480.0L600.0,480.0L608.0,480.0L608.0,488.0L608.0,496.0L600.0,496.0L592.0,496.0L592.0,488.0ZM176.0,472.0L176.0,464.0L184.0,464.0L192.0,464.0L192.0,472.0L192.0,480.0L184.0,480.0L176.0,480.0L176.0,472.0ZM192.0,440.0L192.0,432.0L200.0,432.0L208.0,432.0L208.0,440.0L208.0,448.0L200.0,448.0L192.0,448.0L192.0,440.0ZM256.0,440.0L256.0,432.0L264.0,432.0L272.0,432.0L272.0,440.0L272.0,448.0L264.0,448.0L256.0,448.0L256.0,440.0ZM496.0,440.0L496.0,432.0L504.0,432.0L512.0,432.0L512.0,440.0L512.0,448.0L504.0,448.0L496.0,448.0L496.0,440.0ZM560.0,440.0L560.0,432.0L568.0,432.0L576.0,432.0L576.0,440.0L576.0,448.0L568.0,448.0L560.0,448.0L560.0,440.0ZM208.0,408.0L208.0,400.0L216.0,400.0L224.0,400.0L224.0,408.0L224.0,416.0L216.0,416.0L208.0,416.0L208.0,408.0ZM304.0,408.0L304.0,400.0L312.0,400.0L320.0,400.0L320.0,408.0L320.0,416.0L312.0,416.0L304.0,416.0L304.0,408.0ZM448.0,408.0L448.0,400.0L456.0,400.0L464.0,400.0L464.0,408.0L464.0,416.0L456.0,416.0L448.0,416.0L448.0,408.0ZM544.0,408.0L544.0,400.0L552.0,400.0L560.0,400.0L560.0,408.0L560.0,416.0L552.0,416.0L544.0,416.0L544.0,408.0ZM336.0,376.0L336.0,368.0L344.0,368.0L352.0,368.0L352.0,376.0L352.0,384.0L344.0,384.0L336.0,384.0L336.0,376.0ZM416.0,376.0L416.0,368.0L424.0,368.0L432.0,368.0L432.0,376.0L432.0,384.0L424.0,384.0L416.0,384.0L416.0,376.0ZM336.0,328.0L336.0,304.0L344.0,304.0L352.0,304.0L352.0,328.0L352.0,352.0L344.0,352.0L336.0,352.0L336.0,328.0ZM256.0,328.0L256.0,320.0L264.0,320.0L272.0,320.0L272.0,328.0L272.0,336.0L264.0,336.0L256.0,336.0L256.0,328.0ZM416.0,320.0L416.0,304.0L424.0,304.0L432.0,304.0L432.0,320.0L432.0,336.0L424.0,336.0L416.0,336.0L416.0,320.0ZM496.0,328.0L496.0,320.0L504.0,320.0L512.0,320.0L512.0,328.0L512.0,336.0L504.0,336.0L496.0,336.0L496.0,328.0ZM0.0,272.0L0.0,256.0L8.0,256.0L16.0,256.0L16.0,272.0L16.0,288.0L8.0,288.0L0.0,288.0L0.0,272.0ZM288.0,280.0L288.0,272.0L296.0,272.0L304.0,272.0L304.0,280.0L304.0,288.0L296.0,288.0L288.0,288.0L288.0,280.0ZM464.0,280.0L464.0,272.0L472.0,272.0L480.0,272.0L480.0,280.0L480.0,288.0L472.0,288.0L464.0,288.0L464.0,280.0ZM752.0,272.0L752.0,256.0L760.0,256.0L768.0,256.0L768.0,272.0L768.0,288.0L760.0,288.0L752.0,288.0L752.0,272.0ZM352.0,264.0L352.0,256.0L360.0,256.0L368.0,256.0L368.0,248.0L368.0,240.0L384.0,240.0L400.0,240.0L400.0,248.0L400.0,256.0L408.0,256.0L416.0,256.0L416.0,264.0L416.0,272.0L408.0,272.0L400.0,272.0L400.0,264.0L400.0,256.0L384.0,256.0L368.0,256.0L368.0,264.0L368.0,272.0L360.0,272.0L352.0,272.0L352.0,264.0ZM304.0,248.0L304.0,240.0L312.0,240.0L320.0,240.0L320.0,232.0L320.0,224.0L328.0,224.0L336.0,224.0L336.0,232.0L336.0,240.0L328.0,240.0L320.0,240.0L320.0,248.0L320.0,256.0L312.0,256.0L304.0,256.0L304.0,248.0ZM448.0,248.0L448.0,240.0L440.0,240.0L432.0,240.0L432.0,232.0L432.0,224.0L440.0,224.0L448.0,224.0L448.0,232.0L448.0,240.0L456.0,240.0L464.0,240.0L464.0,248.0L464.0,256.0L456.0,256.0L448.0,256.0L448.0,248.0ZM16.0,224.0L16.0,208.0L24.0,208.0L32.0,208.0L32.0,192.0L32.0,176.0L40.0,176.0L48.0,176.0L48.0,168.0L48.0,160.0L56.0,160.0L64.0,160.0L64.0,168.0L64.0,176.0L56.0,176.0L48.0,176.0L48.0,192.0L48.0,208.0L40.0,208.0L32.0,208.0L32.0,224.0L32.0,240.0L24.0,240.0L16.0,240.0L16.0,224.0ZM736.0,224.0L736.0,208.0L728.0,208.0L720.0,208.0L720.0,192.0L720.0,176.0L712.0,176.0L704.0,176.0L704.0,168.0L704.0,160.0L712.0,160.0L720.0,160.0L720.0,168.0L720.0,176.0L728.0,176.0L736.0,176.0L736.0,192.0L736.0,208.0L744.0,208.0L752.0,208.0L752.0,224.0L752.0,240.0L744.0,240.0L736.0,240.0L736.0,224.0ZM336.0,200.0L336.0,192.0L344.0,192.0L352.0,192.0L352.0,200.0L352.0,208.0L344.0,208.0L336.0,208.0L336.0,200.0ZM416.0,200.0L416.0,192.0L424.0,192.0L432.0,192.0L432.0,200.0L432.0,208.0L424.0,208.0L416.0,208.0L416.0,200.0ZM368.0,152.0L368.0,144.0L384.0,144.0L400.0,144.0L400.0,152.0L400.0,160.0L384.0,160.0L368.0,160.0L368.0,152.0ZM64.0,136.0L64.0,128.0L72.0,128.0L80.0,128.0L80.0,120.0L80.0,112.0L88.0,112.0L96.0,112.0L96.0,104.0L96.0,96.0L104.0,96.0L112.0,96.0L112.0,88.0L112.0,80.0L120.0,80.0L128.0,80.0L128.0,72.0L128.0,64.0L136.0,64.0L144.0,64.0L144.0,72.0L144.0,80.0L136.0,80.0L128.0,80.0L128.0,88.0L128.0,96.0L120.0,96.0L112.0,96.0L112.0,104.0L112.0,112.0L104.0,112.0L96.0,112.0L96.0,120.0L96.0,128.0L88.0,128.0L80.0,128.0L80.0,136.0L80.0,144.0L72.0,144.0L64.0,144.0L64.0,136.0ZM688.0,136.0L688.0,128.0L680.0,128.0L672.0,128.0L672.0,120.0L672.0,112.0L664.0,112.0L656.0,112.0L656.0,104.0L656.0,96.0L648.0,96.0L640.0,96.0L640.0,88.0L640.0,80.0L632.0,80.0L624.0,80.0L624.0,72.0L624.0,64.0L632.0,64.0L640.0,64.0L640.0,72.0L640.0,80.0L648.0,80.0L656.0,80.0L656.0,88.0L656.0,96.0L664.0,96.0L672.0,96.0L672.0,104.0L672.0,112.0L680.0,112.0L688.0,112.0L688.0,120.0L688.0,128.0L696.0,128.0L704.0,128.0L704.0,136.0L704.0,144.0L696.0,144.0L688.0,144.0L688.0,136.0ZM160.0,56.0L160.0,48.0L168.0,48.0L176.0,48.0L176.0,40.0L176.0,32.0L192.0,32.0L208.0,32.0L208.0,24.0L208.0,16.0L224.0,16.0L240.0,16.0L240.0,24.0L240.0,32.0L224.0,32.0L208.0,32.0L208.0,40.0L208.0,48.0L192.0,48.0L176.0,48.0L176.0,56.0L176.0,64.0L168.0,64.0L160.0,64.0L160.0,56.0ZM592.0,56.0L592.0,48.0L576.0,48.0L560.0,48.0L560.0,40.0L560.0,32.0L544.0,32.0L528.0,32.0L528.0,24.0L528.0,16.0L544.0,16.0L560.0,16.0L560.0,24.0L560.0,32.0L576.0,32.0L592.0,32.0L592.0,40.0L592.0,48.0L600.0,48.0L608.0,48.0L608.0,56.0L608.0,64.0L600.0,64.0L592.0,64.0L592.0,56.0ZM256.0,8.0L256.0,0.0L272.0,0.0L288.0,0.0L288.0,8.0L288.0,16.0L272.0,16.0L256.0,16.0L256.0,8.0ZM480.0,8.0L480.0,0.0L496.0,0.0L512.0,0.0L512.0,8.0L512.0,16.0L496.0,16.0L480.0,16.0L480.0,8.0Z"/>
</svg>