<svg xmlns="http://www.w3.org/2000/svg" viewBox="230 200 1140 1120">
<polygon points="797,255 1374,1190 220,1190" fill="#27568C"/>
<path fill="#F2C24E" fill-rule="evenodd" d="M715.1,791.5C715.4,791.3 727.0,790.9 740.9,790.6C754.9,790.3 766.7,789.7 767.2,789.2C767.8,788.6 765.6,783.2 761.6,775.1C758.0,767.9 755.0,761.5 755.0,761.0C755.0,760.4 753.7,757.2 752.1,753.7C748.9,746.7 747.4,741.7 746.5,734.9C746.2,732.3 745.3,729.4 744.5,728.4C743.7,727.3 743.0,724.4 743.0,721.8C743.0,719.2 742.3,714.9 741.4,712.3C740.5,709.7 739.6,705.2 739.4,702.5C739.2,699.8 738.6,694.4 738.1,690.5C735.8,674.4 737.5,634.8 741.0,622.8C742.1,619.2 743.0,614.2 743.0,611.7C743.0,609.2 744.0,604.9 745.4,601.9C746.6,598.9 748.0,594.0 748.3,590.8C749.0,583.3 753.6,571.8 757.7,567.2C759.7,565.0 761.7,561.3 762.6,558.0C765.1,548.6 772.8,534.8 780.5,525.7C782.7,523.1 785.4,519.1 786.5,516.7C788.9,511.6 792.2,509.8 797.5,510.4C800.4,510.7 802.1,511.6 803.5,513.6C804.6,515.1 807.2,518.3 809.2,520.7C813.3,525.5 820.0,535.3 820.0,536.5C820.0,536.9 821.3,538.8 823.0,540.6C824.6,542.5 826.8,546.9 827.9,550.5C829.0,554.1 831.4,559.1 833.1,561.6C834.8,564.0 837.2,569.3 838.6,573.2C839.9,577.1 841.4,580.8 842.0,581.5C842.5,582.1 843.7,585.5 844.6,589.1C845.5,592.6 847.1,597.1 848.3,599.0C850.4,602.6 851.2,607.0 853.0,625.4C853.5,631.4 854.5,638.1 855.1,640.4C857.2,647.7 857.0,680.9 854.9,693.9C853.8,700.1 853.0,707.0 853.0,709.2C853.0,714.2 850.5,724.2 847.9,729.2C846.9,731.2 846.0,734.4 846.0,736.3C846.0,740.5 844.3,745.7 841.9,748.8C840.9,750.1 839.2,754.1 838.0,757.8C836.8,761.5 834.8,766.1 833.5,768.0C831.1,771.5 827.7,780.6 826.5,786.7L825.9,789.8L833.5,790.5C837.7,790.9 845.0,791.0 849.8,790.7C854.6,790.4 863.5,790.5 869.5,790.9C876.1,791.4 847.0,791.7 797.6,791.8C752.0,791.9 714.9,791.8 715.1,791.5Z"/>
<path fill="#A8B4CE" fill-rule="evenodd" d="M656.0,918.7L656.0,907.4L659.0,905.7C661.4,904.2 665.3,903.8 679.2,903.3C701.0,902.6 705.1,901.3 697.5,897.7C695.5,896.8 693.1,896.0 692.2,896.0C689.5,896.0 680.6,886.6 677.7,880.7C676.3,877.8 673.8,873.8 672.2,871.7C670.5,869.6 668.9,866.3 668.6,864.2C667.0,853.5 665.9,839.0 666.5,835.0C667.1,830.8 673.4,817.3 675.4,815.8C676.4,815.1 679.5,809.7 680.6,806.8C681.0,805.6 682.3,805.0 684.1,805.0C685.8,805.0 688.2,803.9 690.2,802.1C692.0,800.5 696.6,797.6 700.3,795.6L707.2,792.0L795.9,792.0L884.6,792.0L890.0,795.5C893.2,797.5 896.8,799.0 898.6,799.0C900.3,799.0 902.8,799.8 904.1,800.9C905.4,801.9 907.4,803.0 908.5,803.4C909.6,803.7 912.0,806.4 913.8,809.4C915.6,812.3 918.1,815.2 919.3,815.9C920.7,816.6 922.7,819.7 924.2,823.3C929.4,835.8 930.0,838.2 929.6,845.5C928.5,864.6 924.9,873.9 915.5,882.2C912.5,884.9 909.8,888.1 909.4,889.3C908.4,892.6 903.9,897.0 901.5,897.0C898.8,897.0 895.3,899.5 896.7,900.3C899.6,902.1 910.3,904.0 917.5,904.0C925.4,904.0 928.8,904.6 936.2,907.2L940.0,908.5L940.0,919.2L940.0,930.0L798.0,930.0L656.0,930.0L656.0,918.7Z"/>
<ellipse cx="796.5" cy="1104.5" rx="507.8" ry="204.4" fill="#FFFFFF"/>
<path fill="#27568C" fill-rule="evenodd" d="M1279.4,1167.7 L1274.9,1173.0 L1270.0,1178.4 L1264.7,1183.6 L1259.0,1188.9 L1253.0,1194.0 L1246.7,1199.1 L1240.0,1204.1 L1232.9,1209.0 L1225.5,1213.8 L1217.8,1218.6 L1209.8,1223.3 L1201.4,1227.8 L1192.7,1232.3 L1183.8,1236.7 L1174.5,1241.0 L1164.9,1245.2 L1155.0,1249.2 L1144.9,1253.2 L1134.5,1257.0 L1123.8,1260.8 L1112.9,1264.4 L1101.7,1267.9 L1090.3,1271.2 L1078.7,1274.4 L1066.9,1277.5 L1054.8,1280.5 L1042.6,1283.3 L1030.1,1286.0 L1017.5,1288.5 L1004.7,1290.9 L991.7,1293.2 L978.6,1295.3 L965.4,1297.3 L952.0,1299.1 L938.5,1300.7 L924.9,1302.3 L911.2,1303.6 L897.4,1304.8 L883.5,1305.9 L869.6,1306.8 L855.6,1307.5 L841.5,1308.1 L827.4,1308.5 L813.3,1308.8 L799.2,1308.9 L785.1,1308.8 L771.0,1308.6 L756.9,1308.3 L742.8,1307.8 L728.8,1307.1 L714.8,1306.2 L700.9,1305.2 L687.1,1304.1 L673.4,1302.8 L659.7,1301.3 L646.2,1299.7 L632.7,1298.0 L619.4,1296.1 L606.3,1294.0 L606.3,1294.0 L620.3,1293.9 L634.2,1293.6 L648.2,1293.1 L662.2,1292.4 L676.2,1291.6 L690.1,1290.6 L704.0,1289.5 L717.8,1288.3 L731.5,1287.0 L745.2,1285.5 L758.8,1284.0 L772.3,1282.4 L785.7,1280.8 L799.0,1279.1 L812.3,1277.3 L825.4,1275.5 L838.4,1273.6 L851.4,1271.8 L864.2,1269.9 L876.9,1268.0 L889.5,1266.0 L902.0,1264.1 L914.4,1262.2 L926.7,1260.3 L938.9,1258.4 L951.0,1256.5 L963.0,1254.6 L974.9,1252.7 L986.7,1250.8 L998.3,1248.9 L1009.9,1247.0 L1021.4,1245.2 L1032.8,1243.3 L1044.1,1241.3 L1055.3,1239.4 L1066.4,1237.4 L1077.4,1235.5 L1088.3,1233.4 L1099.0,1231.3 L1109.7,1229.2 L1120.2,1227.0 L1130.6,1224.7 L1140.9,1222.4 L1151.0,1219.9 L1161.0,1217.4 L1170.8,1214.8 L1180.5,1212.0 L1190.0,1209.1 L1199.3,1206.1 L1208.4,1203.0 L1217.3,1199.7 L1226.0,1196.3 L1234.4,1192.7 L1242.6,1188.9 L1250.6,1185.0 L1258.2,1180.9 L1265.6,1176.7 L1272.7,1172.3 L1279.4,1167.7 Z"/>
<path fill="#27568C" fill-rule="evenodd" d="M1190.0,1226.6C1190.0,1225.8 1191.0,1224.5 1192.2,1223.9C1193.5,1223.3 1195.2,1222.1 1196.0,1221.3C1196.8,1220.5 1200.8,1217.4 1204.9,1214.5C1219.8,1203.5 1237.7,1184.9 1246.7,1171.0C1249.8,1166.3 1253.1,1161.2 1254.2,1159.7C1257.3,1155.3 1263.7,1138.2 1265.5,1129.5C1270.9,1104.6 1265.0,1075.6 1250.2,1053.3C1248.2,1050.3 1245.9,1046.7 1245.2,1045.4C1244.5,1044.0 1242.9,1041.9 1241.7,1040.6C1240.5,1039.3 1239.0,1037.6 1238.5,1036.8C1231.2,1027.6 1212.7,1010.2 1203.6,1004.1L1199.6,1001.5L1221.4,1001.2L1243.1,1001.0L1252.3,1007.9C1270.2,1021.3 1275.8,1028.2 1286.0,1048.8C1295.3,1067.7 1299.2,1079.7 1301.6,1097.3C1303.3,1109.5 1303.3,1110.5 1301.6,1121.3C1299.9,1132.4 1295.8,1146.1 1293.5,1149.0C1292.8,1149.8 1291.9,1151.6 1291.5,1152.9C1289.3,1160.2 1267.0,1185.9 1257.5,1192.3C1255.7,1193.5 1251.4,1196.7 1248.0,1199.3C1244.5,1202.0 1238.3,1206.0 1234.1,1208.2C1229.9,1210.5 1226.0,1212.6 1225.5,1213.0C1225.0,1213.5 1222.2,1214.7 1219.5,1215.8C1216.8,1216.9 1210.0,1219.8 1204.5,1222.3C1191.4,1228.1 1190.0,1228.5 1190.0,1226.6ZM389.0,1225.6C387.6,1224.9 380.6,1221.4 373.5,1218.0C366.4,1214.6 359.7,1211.1 358.8,1210.3C357.9,1209.5 355.8,1208.1 354.1,1207.2C346.5,1203.0 339.1,1197.0 327.1,1185.2C315.5,1173.7 312.3,1169.8 303.5,1155.5C301.2,1151.8 297.2,1140.7 294.9,1132.0C292.0,1120.7 291.8,1099.2 294.5,1088.0C297.8,1074.3 301.7,1063.6 308.4,1050.0C321.1,1024.4 322.7,1022.3 341.7,1007.9L350.9,1001.0L370.5,1001.2L390.0,1001.5L382.3,1007.5C372.6,1015.1 353.7,1033.9 349.3,1040.5C347.4,1043.2 344.1,1048.0 342.0,1051.0C329.3,1068.5 321.9,1094.5 323.4,1115.7C325.1,1138.7 333.2,1159.4 348.5,1179.8C357.8,1192.3 374.5,1209.4 386.2,1218.5C390.4,1221.8 394.1,1225.1 394.4,1225.8C395.1,1227.4 392.2,1227.3 389.0,1225.6Z"/>
<path fill="#27568C" fill-rule="evenodd" d="M409.6,1186.2C408.3,1185.0 409.1,1181.7 411.5,1178.6C412.9,1176.8 415.0,1173.5 416.3,1171.2C421.0,1162.8 428.4,1150.4 430.0,1148.5C430.9,1147.4 432.9,1144.1 434.4,1141.1C436.0,1138.2 440.2,1131.0 443.8,1125.1C447.3,1119.3 451.9,1111.8 453.8,1108.5C455.8,1105.2 458.8,1100.5 460.5,1098.0C462.2,1095.5 463.9,1092.7 464.3,1091.6C464.9,1090.0 468.4,1084.5 477.0,1071.5C478.4,1069.3 480.2,1066.2 480.8,1064.6C481.5,1063.0 483.6,1059.4 485.4,1056.6C487.2,1053.8 490.4,1048.6 492.5,1045.0C494.6,1041.4 497.4,1036.9 498.7,1034.9C500.0,1033.0 501.0,1031.0 501.1,1030.4C501.1,1029.9 503.9,1025.5 507.3,1020.5L513.5,1011.5L550.7,1011.2C593.3,1010.9 588.5,1009.8 595.2,1021.5C599.2,1028.4 607.4,1042.2 619.2,1061.5C622.6,1067.0 625.6,1071.7 626.0,1072.0C626.4,1072.3 627.3,1073.6 628.0,1075.0C630.3,1079.5 640.3,1096.5 641.6,1098.0C642.7,1099.3 647.0,1106.6 651.7,1115.0C652.4,1116.4 657.1,1124.0 662.0,1132.0C666.9,1140.0 673.0,1150.1 675.6,1154.5C680.0,1162.1 682.7,1166.5 689.8,1177.4C691.6,1180.1 693.0,1183.0 693.0,1183.7C693.0,1186.6 688.0,1187.2 676.6,1185.5C653.1,1182.1 634.7,1173.2 622.0,1159.2C618.7,1155.5 616.0,1152.0 616.0,1151.4C616.0,1150.7 614.7,1148.8 613.1,1147.1L610.2,1144.0L551.2,1144.0C518.7,1144.0 491.4,1144.3 490.5,1144.6C489.6,1145.0 487.7,1147.6 486.3,1150.4C484.9,1153.2 480.4,1158.8 476.1,1163.0C470.0,1169.1 466.6,1171.5 459.0,1175.1C447.4,1180.7 438.7,1183.6 429.5,1184.9C420.1,1186.3 410.3,1186.9 409.6,1186.2ZM754.5,1184.2C742.3,1180.0 734.8,1173.2 730.9,1162.7L728.6,1156.5L728.2,1086.5C727.9,1038.4 728.1,1015.6 728.9,1013.8L730.0,1011.0L757.8,1011.0C778.1,1011.0 785.9,1011.3 786.8,1012.2C787.7,1013.1 788.0,1029.7 788.0,1080.7C788.0,1117.7 788.1,1148.1 788.2,1148.2C788.4,1148.4 819.3,1148.7 857.0,1149.0L925.5,1149.5L925.8,1152.0C926.0,1153.9 924.6,1155.9 919.7,1160.8C911.6,1168.8 904.7,1173.8 894.4,1178.9C880.2,1186.0 880.4,1186.0 816.5,1186.0C765.0,1185.9 759.0,1185.8 754.5,1184.2ZM1003.0,1184.6C997.1,1183.2 984.2,1177.1 976.7,1172.0C969.7,1167.3 957.0,1155.0 957.0,1152.9C957.0,1151.9 957.9,1150.6 958.9,1150.0C960.2,1149.3 987.0,1149.0 1038.9,1149.0C1115.8,1149.0 1117.0,1149.0 1117.0,1147.0C1117.0,1145.6 1115.8,1144.7 1112.2,1143.6C1109.6,1142.9 1102.8,1140.0 1097.0,1137.2C1091.2,1134.4 1080.4,1129.6 1073.0,1126.5C1057.7,1120.0 1043.8,1114.0 1036.5,1110.6C1033.8,1109.3 1026.5,1106.1 1020.5,1103.5C1014.5,1100.9 1008.6,1098.1 1007.5,1097.4C1006.4,1096.6 1004.9,1096.0 1004.0,1096.0C1001.5,1096.0 994.3,1091.8 987.1,1086.0C973.0,1074.7 965.9,1058.3 968.9,1043.8C970.1,1038.1 975.8,1028.3 980.1,1024.4C984.1,1020.8 993.1,1016.3 1001.0,1013.8L1008.5,1011.5L1069.5,1011.5L1130.5,1011.5L1136.5,1014.4C1139.8,1015.9 1144.2,1018.9 1146.3,1020.9C1150.6,1025.0 1157.0,1036.8 1157.0,1040.5C1157.0,1045.9 1157.8,1045.9 1091.0,1045.5C1057.2,1045.3 1028.9,1045.5 1028.1,1045.9C1025.0,1047.8 1027.6,1050.3 1036.0,1053.7C1043.3,1056.6 1062.4,1064.8 1076.7,1071.1C1079.0,1072.2 1081.1,1073.0 1081.4,1073.0C1082.2,1073.0 1122.3,1090.8 1135.6,1097.1C1139.0,1098.7 1142.1,1100.0 1142.4,1100.0C1142.8,1100.0 1146.6,1102.0 1151.0,1104.5C1161.4,1110.6 1169.8,1119.5 1173.3,1128.4C1176.9,1137.3 1177.1,1149.2 1173.8,1157.6C1170.3,1166.3 1162.7,1174.0 1152.7,1178.9C1138.5,1185.8 1136.0,1186.0 1068.1,1185.9C1024.9,1185.8 1007.0,1185.5 1003.0,1184.6ZM587.8,1105.8C588.0,1104.9 587.3,1102.8 586.2,1101.3C584.4,1098.7 581.4,1093.9 576.5,1085.9C575.4,1084.1 573.6,1081.2 572.5,1079.4C571.4,1077.6 567.2,1070.4 563.1,1063.3C559.1,1056.3 555.1,1049.7 554.2,1048.8C551.8,1045.9 548.4,1046.6 546.2,1050.2C545.2,1052.0 541.0,1059.1 537.0,1066.0C532.9,1072.9 529.1,1079.2 528.5,1080.0C527.8,1080.8 525.3,1085.1 523.0,1089.5C520.7,1093.9 517.9,1098.4 516.9,1099.6C515.8,1100.7 515.0,1103.1 515.0,1104.8L515.0,1108.0L551.2,1107.8C584.5,1107.5 587.5,1107.4 587.8,1105.8Z"/>
</svg>